<?xml version="1.0" encoding="UTF-8" standalone="no"?><!DOCTYPE svg PUBLIC "-//W3C//DTD SVG 1.1//EN" "http://www.w3.org/Graphics/SVG/1.1/DTD/svg11.dtd"><svg width="100%" height="100%" viewBox="0 0 1326 488" version="1.1" xmlns="http://www.w3.org/2000/svg" xmlns:xlink="http://www.w3.org/1999/xlink" xml:space="preserve" xmlns:serif="http://www.serif.com/" style="fill-rule:evenodd;clip-rule:evenodd;stroke-linejoin:round;stroke-miterlimit:2;"><rect id="Artboard1" x="0" y="0" width="1325.2" height="487.795" style="fill:none;"/><g><circle cx="262.894" cy="311.204" r="23.953"/><circle cx="1252.96" cy="311.204" r="23.953"/><path d="M262.894,230.162c44.728,0 81.042,36.314 81.042,81.042c-0,44.728 -36.314,81.042 -81.042,81.042c-44.728,-0 -81.041,-36.314 -81.041,-81.042c-0,-44.728 36.313,-81.042 81.041,-81.042Zm0,23.694c-31.651,0 -57.348,25.697 -57.348,57.348c0,31.651 25.697,57.348 57.348,57.348c31.652,-0 57.348,-25.697 57.348,-57.348c0,-31.651 -25.696,-57.348 -57.348,-57.348Z"/><path d="M1035.38,311.204l0,69.195c0,6.538 -5.308,11.847 -11.847,11.847c-6.538,-0 -11.847,-5.309 -11.847,-11.847l0,-138.39c0,-6.538 5.309,-11.847 11.847,-11.847c6.539,0 11.847,5.309 11.847,11.847l0,11.955c14.674,-14.701 34.956,-23.802 57.348,-23.802c6.538,0 11.847,5.309 11.847,11.847c-0,6.539 -5.309,11.847 -11.847,11.847c-31.651,0 -57.348,25.697 -57.348,57.348Z"/><path d="M938.41,360.83c5.652,-3.286 12.909,-1.364 16.195,4.289c3.286,5.653 1.363,12.91 -4.289,16.196c-11.954,6.947 -25.84,10.931 -40.65,10.931c-44.728,-0 -81.041,-36.314 -81.041,-81.042c-0,-44.728 36.313,-81.042 81.041,-81.042c44.728,0 81.042,36.314 81.042,81.042c-0,6.543 -5.304,11.847 -11.847,11.847l-69.195,-0c-6.538,-0 -11.846,-5.309 -11.846,-11.847c-0,-6.538 5.308,-11.847 11.846,-11.847c0,0 56.121,0 56.121,0c-5.464,-25.975 -28.53,-45.501 -56.121,-45.501c-31.651,0 -57.348,25.697 -57.348,57.348c0,31.651 25.697,57.348 57.348,57.348c10.472,-0 20.292,-2.81 28.744,-7.722Z"/><path d="M1125.79,323.051l-33.057,-0c-6.538,-0 -11.847,-5.309 -11.847,-11.847c0,-6.538 5.309,-11.847 11.847,-11.847l33.057,0l0,-191.699c0,-6.538 5.309,-11.846 11.847,-11.846c6.539,-0 11.847,5.308 11.847,11.846l-0,190.349c25.691,-5.679 44.932,-28.609 44.932,-55.998c0,-6.538 5.309,-11.847 11.847,-11.847c6.539,0 11.847,5.309 11.847,11.847c0,29.279 -15.561,54.953 -38.856,69.195c23.295,14.242 38.856,39.916 38.856,69.195c0,6.538 -5.308,11.847 -11.847,11.847c-6.538,-0 -11.847,-5.309 -11.847,-11.847c0,-27.389 -19.241,-50.319 -44.932,-55.998l-0,55.998c-0,6.538 -5.308,11.847 -11.847,11.847c-6.538,-0 -11.847,-5.309 -11.847,-11.847l0,-57.348Z"/><path d="M807.332,236.086c3.269,-5.663 10.52,-7.606 16.183,-4.336c5.662,3.269 7.605,10.52 4.336,16.183l-79.899,138.389c-2.117,3.666 -6.028,5.924 -10.26,5.924c-4.232,-0 -8.143,-2.258 -10.26,-5.924l-79.899,-138.389c-3.269,-5.663 -1.326,-12.914 4.336,-16.183c5.663,-3.27 12.914,-1.327 16.183,4.336l69.64,120.619l69.64,-120.619Z"/><path d="M119.505,253.856l0,126.543c0,6.538 -5.308,11.847 -11.847,11.847c-6.538,-0 -11.846,-5.309 -11.846,-11.847l-0,-276.779c-0,-6.543 5.304,-11.847 11.846,-11.847l45.882,-0c44.728,-0 81.041,36.313 81.041,81.041c0,44.729 -36.313,81.042 -81.041,81.042l-34.035,0Zm0,-23.694l34.035,0c31.651,0 57.348,-25.696 57.348,-57.348c-0,-31.651 -25.697,-57.348 -57.348,-57.348c-0,0 -34.035,0 -34.035,0l0,114.696Z"/><path d="M594.461,360.83c5.653,-3.286 12.91,-1.364 16.195,4.289c3.286,5.653 1.364,12.91 -4.289,16.196c-11.953,6.947 -25.84,10.931 -40.649,10.931c-44.728,-0 -81.042,-36.314 -81.042,-81.042c0,-44.728 36.314,-81.042 81.042,-81.042c44.728,0 81.041,36.314 81.041,81.042c0,6.543 -5.304,11.847 -11.847,11.847l-69.194,-0c-6.539,-0 -11.847,-5.309 -11.847,-11.847c-0,-6.538 5.308,-11.847 11.847,-11.847c-0,0 56.12,0 56.12,0c-5.464,-25.975 -28.53,-45.501 -56.12,-45.501c-31.652,0 -57.348,25.697 -57.348,57.348c-0,31.651 25.696,57.348 57.348,57.348c10.471,-0 20.291,-2.81 28.743,-7.722Z"/><path d="M366.835,253.856l-23.288,0c-6.539,0 -11.847,-5.308 -11.847,-11.847c-0,-6.538 5.308,-11.847 11.847,-11.847l23.288,0l0,-122.504c0,-6.538 5.309,-11.846 11.847,-11.846c6.538,-0 11.847,5.308 11.847,11.846l-0,122.504l23.288,0c6.539,0 11.847,5.309 11.847,11.847c-0,6.539 -5.308,11.847 -11.847,11.847l-23.288,0l-0,126.543c-0,6.538 -5.309,11.847 -11.847,11.847c-6.538,-0 -11.847,-5.309 -11.847,-11.847l0,-126.543Z"/><path d="M463.015,380.399c-0,6.538 -5.309,11.847 -11.847,11.847c-6.539,-0 -11.847,-5.309 -11.847,-11.847l0,-272.741c0,-6.538 5.308,-11.846 11.847,-11.846c6.538,-0 11.847,5.308 11.847,11.846l-0,272.741Z"/></g></svg>